<svg width="153" height="136" viewBox="0 0 153 136" fill="none" xmlns="http://www.w3.org/2000/svg">
<path d="M55.25 0C47.3078 0 40.7203 5.44531 38.8344 12.8031C38.6219 12.8031 38.4625 12.75 38.25 12.75C28.8734 12.75 21.25 20.3734 21.25 29.75C21.25 31.025 21.4094 32.2734 21.7016 33.4688C13.9453 36.6562 8.5 44.2531 8.5 53.125C8.5 56.4719 9.35 59.5797 10.7047 62.3953C4.32969 66.0609 0 72.8609 0 80.75C0 89.5953 5.41875 97.1922 13.1219 100.38C12.8828 101.602 12.75 102.85 12.75 104.125C12.75 114.697 21.3031 123.25 31.875 123.25C32.9641 123.25 34.0266 123.117 35.0625 122.931C37.6125 130.502 44.6781 136 53.125 136C63.6969 136 72.25 127.447 72.25 116.875V17C72.25 7.62344 64.6266 0 55.25 0ZM153 80.75C153 72.8609 148.67 66.0609 142.295 62.3953C143.677 59.5797 144.5 56.4719 144.5 53.125C144.5 44.2531 139.055 36.6562 131.298 33.4688C131.564 32.2734 131.75 31.025 131.75 29.75C131.75 20.3734 124.127 12.75 114.75 12.75C114.537 12.75 114.352 12.8031 114.166 12.8031C112.28 5.44531 105.692 0 97.75 0C88.3734 0 80.75 7.59687 80.75 17V116.875C80.75 127.447 89.3031 136 99.875 136C108.322 136 115.387 130.502 117.938 122.931C118.973 123.117 120.036 123.25 121.125 123.25C131.697 123.25 140.25 114.697 140.25 104.125C140.25 102.85 140.117 101.602 139.878 100.38C147.581 97.1922 153 89.5953 153 80.75Z" fill="white"/>
</svg>
